<mxfile host="app.diagrams.net" modified="2024-05-20T04:17:36.590Z" agent="Mozilla/5.0 (Macintosh; Intel Mac OS X 10_15_7) AppleWebKit/537.36 (KHTML, like Gecko) Chrome/124.0.0.0 Safari/537.36" etag="wbBrKrMC5FunIQBOtmnd" version="24.4.0" type="github">
  <diagram name="Genome Arch" id="9m0ilViY6gOGbBUAO9Fo">
    <mxGraphModel dx="1578" dy="2107" grid="1" gridSize="10" guides="1" tooltips="1" connect="1" arrows="1" fold="1" page="1" pageScale="1" pageWidth="827" pageHeight="1169" math="0" shadow="0">
      <root>
        <mxCell id="0" />
        <mxCell id="1" parent="0" />
        <mxCell id="xrs2LPAoIaT8d_hiwX7s-95" value="" style="rounded=1;whiteSpace=wrap;html=1;" vertex="1" parent="1">
          <mxGeometry x="40" y="-900" width="1350" height="1290" as="geometry" />
        </mxCell>
        <mxCell id="xrs2LPAoIaT8d_hiwX7s-54" value="" style="rounded=1;whiteSpace=wrap;html=1;" vertex="1" parent="1">
          <mxGeometry x="110" y="440" width="870" height="450" as="geometry" />
        </mxCell>
        <mxCell id="xrs2LPAoIaT8d_hiwX7s-1" value="" style="rounded=1;whiteSpace=wrap;html=1;" vertex="1" parent="1">
          <mxGeometry x="130" y="90" width="800" height="260" as="geometry" />
        </mxCell>
        <mxCell id="xrs2LPAoIaT8d_hiwX7s-2" value="LLM Grounding" style="rounded=0;whiteSpace=wrap;html=1;" vertex="1" parent="1">
          <mxGeometry x="175" y="200" width="120" height="40" as="geometry" />
        </mxCell>
        <mxCell id="xrs2LPAoIaT8d_hiwX7s-3" value="MLOps" style="rounded=0;whiteSpace=wrap;html=1;" vertex="1" parent="1">
          <mxGeometry x="320" y="200" width="110" height="40" as="geometry" />
        </mxCell>
        <mxCell id="xrs2LPAoIaT8d_hiwX7s-4" value="Business Simulation" style="rounded=0;whiteSpace=wrap;html=1;" vertex="1" parent="1">
          <mxGeometry x="454" y="200" width="120" height="40" as="geometry" />
        </mxCell>
        <mxCell id="xrs2LPAoIaT8d_hiwX7s-5" value="UI Framework" style="rounded=0;whiteSpace=wrap;html=1;" vertex="1" parent="1">
          <mxGeometry x="240" y="150" width="90" height="40" as="geometry" />
        </mxCell>
        <mxCell id="xrs2LPAoIaT8d_hiwX7s-6" value="API Management ( AWS)" style="rounded=0;whiteSpace=wrap;html=1;" vertex="1" parent="1">
          <mxGeometry x="409.5" y="150" width="151" height="40" as="geometry" />
        </mxCell>
        <mxCell id="xrs2LPAoIaT8d_hiwX7s-7" value="API Management ( AWS)" style="rounded=0;whiteSpace=wrap;html=1;" vertex="1" parent="1">
          <mxGeometry x="619" y="150" width="151" height="40" as="geometry" />
        </mxCell>
        <mxCell id="xrs2LPAoIaT8d_hiwX7s-15" value="&lt;b&gt;Genome Core ( Components)&lt;/b&gt;&lt;div&gt;Genome architecture common services&lt;/div&gt;" style="text;html=1;align=center;verticalAlign=middle;whiteSpace=wrap;rounded=0;fillColor=#d5e8d4;strokeColor=none;" vertex="1" parent="1">
          <mxGeometry x="389" y="100" width="230" height="30" as="geometry" />
        </mxCell>
        <mxCell id="xrs2LPAoIaT8d_hiwX7s-16" value="Generic Knowledge Graph DB" style="rounded=0;whiteSpace=wrap;html=1;fillColor=#ffe6cc;strokeColor=none;" vertex="1" parent="1">
          <mxGeometry x="250" y="290" width="110" height="40" as="geometry" />
        </mxCell>
        <mxCell id="xrs2LPAoIaT8d_hiwX7s-17" value="Schema management" style="rounded=0;whiteSpace=wrap;html=1;fillColor=#ffe6cc;strokeColor=none;" vertex="1" parent="1">
          <mxGeometry x="389" y="290" width="90" height="40" as="geometry" />
        </mxCell>
        <mxCell id="xrs2LPAoIaT8d_hiwX7s-19" value="Configuration Schema DB" style="rounded=0;whiteSpace=wrap;html=1;fillColor=#ffe6cc;strokeColor=none;" vertex="1" parent="1">
          <mxGeometry x="520" y="290" width="90" height="40" as="geometry" />
        </mxCell>
        <mxCell id="xrs2LPAoIaT8d_hiwX7s-20" value="Simulation snapshot management DB" style="rounded=0;whiteSpace=wrap;html=1;fillColor=#ffe6cc;strokeColor=none;" vertex="1" parent="1">
          <mxGeometry x="650" y="290" width="140" height="40" as="geometry" />
        </mxCell>
        <mxCell id="xrs2LPAoIaT8d_hiwX7s-21" value="" style="rounded=0;whiteSpace=wrap;html=1;" vertex="1" parent="1">
          <mxGeometry x="150" y="-250" width="520" height="250" as="geometry" />
        </mxCell>
        <mxCell id="xrs2LPAoIaT8d_hiwX7s-22" value="LLM proxy" style="rounded=1;whiteSpace=wrap;html=1;" vertex="1" parent="1">
          <mxGeometry x="190" y="-230" width="90" height="40" as="geometry" />
        </mxCell>
        <mxCell id="xrs2LPAoIaT8d_hiwX7s-23" value="Feedback managment" style="rounded=1;whiteSpace=wrap;html=1;" vertex="1" parent="1">
          <mxGeometry x="345" y="-230" width="90" height="40" as="geometry" />
        </mxCell>
        <mxCell id="xrs2LPAoIaT8d_hiwX7s-24" value="Metadata services" style="rounded=1;whiteSpace=wrap;html=1;" vertex="1" parent="1">
          <mxGeometry x="520" y="-230" width="90" height="40" as="geometry" />
        </mxCell>
        <mxCell id="xrs2LPAoIaT8d_hiwX7s-25" value="LLM Grounding" style="text;html=1;align=center;verticalAlign=middle;whiteSpace=wrap;rounded=0;fillColor=#f5f5f5;strokeColor=none;fontColor=#333333;" vertex="1" parent="1">
          <mxGeometry x="320" y="-50" width="153" height="36" as="geometry" />
        </mxCell>
        <mxCell id="xrs2LPAoIaT8d_hiwX7s-26" value="Ontology management services" style="rounded=1;whiteSpace=wrap;html=1;" vertex="1" parent="1">
          <mxGeometry x="190" y="-170" width="140" height="40" as="geometry" />
        </mxCell>
        <mxCell id="xrs2LPAoIaT8d_hiwX7s-27" value="AI Agents management" style="rounded=1;whiteSpace=wrap;html=1;" vertex="1" parent="1">
          <mxGeometry x="350" y="-170" width="140" height="40" as="geometry" />
        </mxCell>
        <mxCell id="xrs2LPAoIaT8d_hiwX7s-28" value="LLM Workflows managment" style="rounded=1;whiteSpace=wrap;html=1;" vertex="1" parent="1">
          <mxGeometry x="505.5" y="-170" width="140" height="40" as="geometry" />
        </mxCell>
        <mxCell id="xrs2LPAoIaT8d_hiwX7s-29" value="LLM Prompt repository" style="rounded=1;whiteSpace=wrap;html=1;" vertex="1" parent="1">
          <mxGeometry x="190" y="-110" width="140" height="40" as="geometry" />
        </mxCell>
        <mxCell id="xrs2LPAoIaT8d_hiwX7s-30" value="" style="rounded=1;whiteSpace=wrap;html=1;" vertex="1" parent="1">
          <mxGeometry x="350" y="500" width="320" height="60" as="geometry" />
        </mxCell>
        <mxCell id="xrs2LPAoIaT8d_hiwX7s-37" value="&lt;b&gt;Genome Core ( Components)&lt;/b&gt;&lt;div&gt;Genome architecture common services&lt;/div&gt;" style="text;html=1;align=center;verticalAlign=middle;whiteSpace=wrap;rounded=0;fillColor=#d5e8d4;strokeColor=none;" vertex="1" parent="1">
          <mxGeometry x="399" y="510" width="230" height="30" as="geometry" />
        </mxCell>
        <mxCell id="xrs2LPAoIaT8d_hiwX7s-42" value="" style="rounded=1;whiteSpace=wrap;html=1;" vertex="1" parent="1">
          <mxGeometry x="140" y="585" width="800" height="260" as="geometry" />
        </mxCell>
        <mxCell id="xrs2LPAoIaT8d_hiwX7s-43" value="Segmentation" style="rounded=0;whiteSpace=wrap;html=1;" vertex="1" parent="1">
          <mxGeometry x="260" y="715" width="120" height="40" as="geometry" />
        </mxCell>
        <mxCell id="xrs2LPAoIaT8d_hiwX7s-44" value="C360 AI Models" style="rounded=0;whiteSpace=wrap;html=1;" vertex="1" parent="1">
          <mxGeometry x="660.5" y="715" width="110" height="40" as="geometry" />
        </mxCell>
        <mxCell id="xrs2LPAoIaT8d_hiwX7s-46" value="UI Framework" style="rounded=0;whiteSpace=wrap;html=1;" vertex="1" parent="1">
          <mxGeometry x="399" y="635" width="90" height="40" as="geometry" />
        </mxCell>
        <mxCell id="xrs2LPAoIaT8d_hiwX7s-50" value="C360 schema" style="rounded=0;whiteSpace=wrap;html=1;fillColor=#ffe6cc;strokeColor=none;" vertex="1" parent="1">
          <mxGeometry x="275" y="785" width="110" height="40" as="geometry" />
        </mxCell>
        <mxCell id="xrs2LPAoIaT8d_hiwX7s-53" value="Configuration Extension" style="rounded=0;whiteSpace=wrap;html=1;fillColor=#ffe6cc;strokeColor=none;" vertex="1" parent="1">
          <mxGeometry x="639" y="785" width="140" height="40" as="geometry" />
        </mxCell>
        <mxCell id="xrs2LPAoIaT8d_hiwX7s-55" value="&lt;b&gt;Customer 360 Solution&lt;/b&gt;" style="text;html=1;align=center;verticalAlign=middle;whiteSpace=wrap;rounded=0;fillColor=#d5e8d4;strokeColor=none;" vertex="1" parent="1">
          <mxGeometry x="384" y="460" width="230" height="30" as="geometry" />
        </mxCell>
        <mxCell id="xrs2LPAoIaT8d_hiwX7s-56" value="&lt;b&gt;Customer 360 components&lt;/b&gt;" style="text;html=1;align=center;verticalAlign=middle;whiteSpace=wrap;rounded=0;fillColor=#d5e8d4;strokeColor=none;" vertex="1" parent="1">
          <mxGeometry x="390" y="595" width="230" height="30" as="geometry" />
        </mxCell>
        <mxCell id="xrs2LPAoIaT8d_hiwX7s-57" value="Schema management Extension" style="rounded=0;whiteSpace=wrap;html=1;fillColor=#ffe6cc;strokeColor=none;" vertex="1" parent="1">
          <mxGeometry x="433.5" y="785" width="161" height="40" as="geometry" />
        </mxCell>
        <mxCell id="xrs2LPAoIaT8d_hiwX7s-58" value="" style="rounded=0;whiteSpace=wrap;html=1;" vertex="1" parent="1">
          <mxGeometry x="690" y="-260" width="520" height="250" as="geometry" />
        </mxCell>
        <mxCell id="xrs2LPAoIaT8d_hiwX7s-59" value="LLM proxy" style="rounded=1;whiteSpace=wrap;html=1;" vertex="1" parent="1">
          <mxGeometry x="730" y="-240" width="90" height="40" as="geometry" />
        </mxCell>
        <mxCell id="xrs2LPAoIaT8d_hiwX7s-60" value="Feedback managment" style="rounded=1;whiteSpace=wrap;html=1;" vertex="1" parent="1">
          <mxGeometry x="885" y="-240" width="90" height="40" as="geometry" />
        </mxCell>
        <mxCell id="xrs2LPAoIaT8d_hiwX7s-61" value="Metadata services" style="rounded=1;whiteSpace=wrap;html=1;" vertex="1" parent="1">
          <mxGeometry x="1060" y="-240" width="90" height="40" as="geometry" />
        </mxCell>
        <mxCell id="xrs2LPAoIaT8d_hiwX7s-62" value="MLOps" style="text;html=1;align=center;verticalAlign=middle;whiteSpace=wrap;rounded=0;fillColor=#f5f5f5;strokeColor=none;fontColor=#333333;" vertex="1" parent="1">
          <mxGeometry x="860" y="-60" width="153" height="36" as="geometry" />
        </mxCell>
        <mxCell id="xrs2LPAoIaT8d_hiwX7s-63" value="Ontology management services" style="rounded=1;whiteSpace=wrap;html=1;" vertex="1" parent="1">
          <mxGeometry x="730" y="-180" width="140" height="40" as="geometry" />
        </mxCell>
        <mxCell id="xrs2LPAoIaT8d_hiwX7s-64" value="AI Agents management" style="rounded=1;whiteSpace=wrap;html=1;" vertex="1" parent="1">
          <mxGeometry x="890" y="-180" width="140" height="40" as="geometry" />
        </mxCell>
        <mxCell id="xrs2LPAoIaT8d_hiwX7s-65" value="LLM Workflows managment" style="rounded=1;whiteSpace=wrap;html=1;" vertex="1" parent="1">
          <mxGeometry x="1045.5" y="-180" width="140" height="40" as="geometry" />
        </mxCell>
        <mxCell id="xrs2LPAoIaT8d_hiwX7s-66" value="LLM Prompt repository" style="rounded=1;whiteSpace=wrap;html=1;" vertex="1" parent="1">
          <mxGeometry x="730" y="-120" width="140" height="40" as="geometry" />
        </mxCell>
        <mxCell id="xrs2LPAoIaT8d_hiwX7s-67" value="" style="rounded=0;whiteSpace=wrap;html=1;" vertex="1" parent="1">
          <mxGeometry x="690" y="-530" width="520" height="250" as="geometry" />
        </mxCell>
        <mxCell id="xrs2LPAoIaT8d_hiwX7s-68" value="LLM proxy" style="rounded=1;whiteSpace=wrap;html=1;" vertex="1" parent="1">
          <mxGeometry x="730" y="-510" width="90" height="40" as="geometry" />
        </mxCell>
        <mxCell id="xrs2LPAoIaT8d_hiwX7s-69" value="Feedback managment" style="rounded=1;whiteSpace=wrap;html=1;" vertex="1" parent="1">
          <mxGeometry x="885" y="-510" width="90" height="40" as="geometry" />
        </mxCell>
        <mxCell id="xrs2LPAoIaT8d_hiwX7s-70" value="Metadata services" style="rounded=1;whiteSpace=wrap;html=1;" vertex="1" parent="1">
          <mxGeometry x="1060" y="-510" width="90" height="40" as="geometry" />
        </mxCell>
        <mxCell id="xrs2LPAoIaT8d_hiwX7s-71" value="Business Simulation" style="text;html=1;align=center;verticalAlign=middle;whiteSpace=wrap;rounded=0;fillColor=#f5f5f5;strokeColor=none;fontColor=#333333;" vertex="1" parent="1">
          <mxGeometry x="860" y="-330" width="153" height="36" as="geometry" />
        </mxCell>
        <mxCell id="xrs2LPAoIaT8d_hiwX7s-72" value="Ontology management services" style="rounded=1;whiteSpace=wrap;html=1;" vertex="1" parent="1">
          <mxGeometry x="730" y="-450" width="140" height="40" as="geometry" />
        </mxCell>
        <mxCell id="xrs2LPAoIaT8d_hiwX7s-73" value="AI Agents management" style="rounded=1;whiteSpace=wrap;html=1;" vertex="1" parent="1">
          <mxGeometry x="890" y="-450" width="140" height="40" as="geometry" />
        </mxCell>
        <mxCell id="xrs2LPAoIaT8d_hiwX7s-74" value="LLM Workflows managment" style="rounded=1;whiteSpace=wrap;html=1;" vertex="1" parent="1">
          <mxGeometry x="1045.5" y="-450" width="140" height="40" as="geometry" />
        </mxCell>
        <mxCell id="xrs2LPAoIaT8d_hiwX7s-75" value="LLM Prompt repository" style="rounded=1;whiteSpace=wrap;html=1;" vertex="1" parent="1">
          <mxGeometry x="730" y="-390" width="140" height="40" as="geometry" />
        </mxCell>
        <mxCell id="xrs2LPAoIaT8d_hiwX7s-76" value="" style="rounded=0;whiteSpace=wrap;html=1;" vertex="1" parent="1">
          <mxGeometry x="154" y="-530" width="520" height="250" as="geometry" />
        </mxCell>
        <mxCell id="xrs2LPAoIaT8d_hiwX7s-77" value="LLM proxy" style="rounded=1;whiteSpace=wrap;html=1;" vertex="1" parent="1">
          <mxGeometry x="194" y="-510" width="90" height="40" as="geometry" />
        </mxCell>
        <mxCell id="xrs2LPAoIaT8d_hiwX7s-78" value="Feedback managment" style="rounded=1;whiteSpace=wrap;html=1;" vertex="1" parent="1">
          <mxGeometry x="349" y="-510" width="90" height="40" as="geometry" />
        </mxCell>
        <mxCell id="xrs2LPAoIaT8d_hiwX7s-79" value="Metadata services" style="rounded=1;whiteSpace=wrap;html=1;" vertex="1" parent="1">
          <mxGeometry x="524" y="-510" width="90" height="40" as="geometry" />
        </mxCell>
        <mxCell id="xrs2LPAoIaT8d_hiwX7s-80" value="UI Framework" style="text;html=1;align=center;verticalAlign=middle;whiteSpace=wrap;rounded=0;fillColor=#f5f5f5;strokeColor=none;fontColor=#333333;" vertex="1" parent="1">
          <mxGeometry x="324" y="-330" width="153" height="36" as="geometry" />
        </mxCell>
        <mxCell id="xrs2LPAoIaT8d_hiwX7s-81" value="Ontology management services" style="rounded=1;whiteSpace=wrap;html=1;" vertex="1" parent="1">
          <mxGeometry x="194" y="-450" width="140" height="40" as="geometry" />
        </mxCell>
        <mxCell id="xrs2LPAoIaT8d_hiwX7s-82" value="AI Agents management" style="rounded=1;whiteSpace=wrap;html=1;" vertex="1" parent="1">
          <mxGeometry x="354" y="-450" width="140" height="40" as="geometry" />
        </mxCell>
        <mxCell id="xrs2LPAoIaT8d_hiwX7s-83" value="LLM Workflows managment" style="rounded=1;whiteSpace=wrap;html=1;" vertex="1" parent="1">
          <mxGeometry x="509.5" y="-450" width="140" height="40" as="geometry" />
        </mxCell>
        <mxCell id="xrs2LPAoIaT8d_hiwX7s-84" value="LLM Prompt repository" style="rounded=1;whiteSpace=wrap;html=1;" vertex="1" parent="1">
          <mxGeometry x="194" y="-390" width="140" height="40" as="geometry" />
        </mxCell>
        <mxCell id="xrs2LPAoIaT8d_hiwX7s-85" value="Signal processing &amp;amp; Rule management" style="rounded=0;whiteSpace=wrap;html=1;" vertex="1" parent="1">
          <mxGeometry x="620" y="200" width="120" height="40" as="geometry" />
        </mxCell>
        <mxCell id="xrs2LPAoIaT8d_hiwX7s-86" value="" style="rounded=0;whiteSpace=wrap;html=1;" vertex="1" parent="1">
          <mxGeometry x="154" y="-800" width="520" height="250" as="geometry" />
        </mxCell>
        <mxCell id="xrs2LPAoIaT8d_hiwX7s-87" value="LLM proxy" style="rounded=1;whiteSpace=wrap;html=1;" vertex="1" parent="1">
          <mxGeometry x="194" y="-780" width="90" height="40" as="geometry" />
        </mxCell>
        <mxCell id="xrs2LPAoIaT8d_hiwX7s-88" value="Feedback managment" style="rounded=1;whiteSpace=wrap;html=1;" vertex="1" parent="1">
          <mxGeometry x="349" y="-780" width="90" height="40" as="geometry" />
        </mxCell>
        <mxCell id="xrs2LPAoIaT8d_hiwX7s-89" value="Metadata services" style="rounded=1;whiteSpace=wrap;html=1;" vertex="1" parent="1">
          <mxGeometry x="524" y="-780" width="90" height="40" as="geometry" />
        </mxCell>
        <mxCell id="xrs2LPAoIaT8d_hiwX7s-90" value="Signal processing &amp;amp; rule management" style="text;html=1;align=center;verticalAlign=middle;whiteSpace=wrap;rounded=0;fillColor=#f5f5f5;strokeColor=none;fontColor=#333333;" vertex="1" parent="1">
          <mxGeometry x="324" y="-600" width="153" height="36" as="geometry" />
        </mxCell>
        <mxCell id="xrs2LPAoIaT8d_hiwX7s-91" value="Ontology management services" style="rounded=1;whiteSpace=wrap;html=1;" vertex="1" parent="1">
          <mxGeometry x="194" y="-720" width="140" height="40" as="geometry" />
        </mxCell>
        <mxCell id="xrs2LPAoIaT8d_hiwX7s-92" value="AI Agents management" style="rounded=1;whiteSpace=wrap;html=1;" vertex="1" parent="1">
          <mxGeometry x="354" y="-720" width="140" height="40" as="geometry" />
        </mxCell>
        <mxCell id="xrs2LPAoIaT8d_hiwX7s-93" value="LLM Workflows managment" style="rounded=1;whiteSpace=wrap;html=1;" vertex="1" parent="1">
          <mxGeometry x="509.5" y="-720" width="140" height="40" as="geometry" />
        </mxCell>
        <mxCell id="xrs2LPAoIaT8d_hiwX7s-94" value="LLM Prompt repository" style="rounded=1;whiteSpace=wrap;html=1;" vertex="1" parent="1">
          <mxGeometry x="194" y="-660" width="140" height="40" as="geometry" />
        </mxCell>
        <mxCell id="xrs2LPAoIaT8d_hiwX7s-96" value="&lt;b&gt;Genome core architecture&amp;nbsp;&lt;/b&gt;" style="text;html=1;align=center;verticalAlign=middle;whiteSpace=wrap;rounded=0;fillColor=#d5e8d4;strokeColor=none;" vertex="1" parent="1">
          <mxGeometry x="580" y="-890" width="230" height="30" as="geometry" />
        </mxCell>
      </root>
    </mxGraphModel>
  </diagram>
</mxfile>
